<?xml version="1.0" encoding="utf-8"?>
<!-- Generator: Adobe Illustrator 18.0.0, SVG Export Plug-In . SVG Version: 6.00 Build 0)  -->
<!DOCTYPE svg PUBLIC "-//W3C//DTD SVG 1.1//EN" "http://www.w3.org/Graphics/SVG/1.1/DTD/svg11.dtd">
<svg version="1.1" id="Facebook" xmlns="http://www.w3.org/2000/svg" xmlns:xlink="http://www.w3.org/1999/xlink" x="0px" y="0px"
	 viewBox="260 170 20 20" enable-background="new 260 170 20 20" xml:space="preserve">
<path d="M275.1,180c0,2.8-2.3,5.1-5.1,5.1s-5.1-2.3-5.1-5.1c0-0.3,0-0.7,0.1-1h-3.4v6.8c0,1.5,1.2,2.6,2.6,2.6h11.6
	c1.5,0,2.6-1.2,2.6-2.6V179H275C275,179.3,275.1,179.6,275.1,180z M275.8,171.5h-11.6c-1.5,0-2.6,1.2-2.6,2.6v2.9h4.3
	c0.9-1.3,2.4-2.2,4.2-2.2c1.7,0,3.2,0.9,4.2,2.2h4.3v-2.9C278.4,172.7,277.2,171.5,275.8,171.5z M277.1,174.8c0,0.3-0.2,0.5-0.5,0.5
	h-1.4c-0.3,0-0.5-0.2-0.5-0.5v-1.4c0-0.3,0.2-0.5,0.5-0.5h1.4c0.3,0,0.5,0.2,0.5,0.5V174.8z M273.1,180c0-1.7-1.4-3.1-3.1-3.1
	s-3.1,1.4-3.1,3.1s1.4,3.1,3.1,3.1S273.1,181.7,273.1,180z"/>
</svg>
